<?xml version="1.0" standalone="no"?>
<!DOCTYPE svg PUBLIC "-//W3C//DTD SVG 20010904//EN"
 "http://www.w3.org/TR/2001/REC-SVG-20010904/DTD/svg10.dtd">
<svg version="1.0" xmlns="http://www.w3.org/2000/svg"
 width="1280.000000pt" height="1180.000000pt" viewBox="0 0 1280.000000 1180.000000"
 preserveAspectRatio="xMidYMid meet">
<metadata>
Created by potrace 1.15, written by Peter Selinger 2001-2017
</metadata>
<g transform="translate(0.000000,1180.000000) scale(0.100000,-0.100000)"
fill="#000000" stroke="none">
<path d="M6153 11780 c-66 -40 -63 3 -63 -875 l0 -795 -32 0 c-65 0 -426 -30
-543 -45 -295 -38 -606 -100 -858 -171 -72 -21 -132 -33 -137 -28 -4 5 -54
117 -110 249 -64 152 -112 250 -129 268 -77 79 -223 14 -223 -98 0 -19 41
-129 97 -261 54 -126 98 -235 99 -242 0 -8 -67 -40 -169 -81 -293 -117 -565
-251 -809 -398 -48 -30 -92 -53 -96 -51 -5 2 -157 148 -337 324 -181 177 -344
329 -362 339 -93 47 -216 -65 -182 -167 8 -23 54 -76 139 -158 70 -69 213
-209 319 -313 l191 -188 -91 -68 c-422 -312 -821 -725 -1095 -1133 -146 -218
-316 -534 -398 -740 -30 -74 -43 -96 -54 -92 -8 3 -205 73 -437 155 -328 115
-429 147 -453 142 -66 -13 -120 -103 -105 -174 16 -70 17 -71 780 -337 72 -25
132 -47 134 -49 2 -1 -10 -56 -27 -120 -54 -201 -83 -356 -117 -625 l-6 -48
-492 0 c-470 0 -493 -1 -524 -20 -60 -36 -80 -116 -47 -186 33 -70 24 -69 565
-72 l486 -3 6 -202 c8 -263 45 -533 108 -781 11 -43 19 -79 17 -81 -2 -1 -201
-51 -443 -110 -242 -59 -452 -114 -467 -121 -42 -22 -63 -61 -62 -115 3 -81
55 -139 123 -139 26 0 236 50 844 200 49 12 90 20 91 18 1 -1 23 -57 49 -124
25 -66 66 -164 91 -217 29 -63 40 -97 33 -100 -87 -36 -848 -366 -893 -388
-91 -43 -116 -107 -74 -190 27 -52 74 -81 120 -76 19 3 168 62 330 132 308
133 440 190 577 248 l82 36 42 -72 c62 -106 172 -268 256 -379 40 -53 73 -101
72 -105 0 -4 -129 -122 -285 -261 -174 -155 -291 -267 -301 -287 -21 -44 -10
-96 29 -140 34 -40 78 -55 126 -44 35 8 41 13 385 320 l227 204 178 -175 c97
-97 226 -216 285 -265 59 -49 106 -94 103 -100 -2 -6 -133 -209 -291 -451
-158 -241 -294 -454 -302 -473 -26 -60 3 -128 68 -162 48 -24 85 -24 125 0 21
13 120 156 328 475 l298 456 107 -73 c147 -102 355 -224 551 -325 91 -47 167
-87 169 -88 2 -2 -142 -366 -319 -809 -342 -855 -335 -835 -294 -893 20 -29
85 -62 121 -62 41 0 90 34 111 77 10 21 155 380 322 798 167 418 307 764 311
769 4 5 72 -15 156 -47 272 -102 709 -228 876 -252 26 -4 50 -11 52 -16 3 -4
-22 -119 -55 -255 -33 -136 -60 -264 -60 -285 0 -31 8 -48 33 -76 30 -31 41
-37 90 -41 62 -5 94 9 122 51 8 12 42 137 75 277 75 315 68 292 88 286 9 -3
96 -15 192 -25 237 -27 612 -45 798 -37 l152 6 0 -28 c0 -51 40 -817 46 -871
5 -45 12 -61 39 -88 29 -29 40 -33 84 -33 63 0 105 20 126 60 20 38 19 97 -5
530 -11 195 -20 376 -20 401 l0 45 123 13 c269 27 609 90 892 165 71 19 130
34 131 33 1 -1 99 -220 218 -487 139 -311 227 -495 245 -513 38 -38 88 -45
143 -18 51 24 78 65 78 117 0 27 -57 165 -210 506 -115 257 -210 472 -210 476
0 4 60 29 133 56 314 116 705 307 981 481 73 46 111 65 114 56 9 -26 1045
-1427 1083 -1463 32 -32 45 -38 80 -38 82 0 139 59 139 143 0 42 -19 70 -486
703 -267 362 -513 695 -546 738 l-60 80 28 20 c241 173 621 529 800 749 l31
37 284 -201 c156 -111 298 -210 314 -221 44 -26 107 -24 143 7 33 28 62 81 62
115 0 60 -26 84 -313 288 -155 110 -290 207 -301 214 -17 14 -14 20 57 124 91
132 165 254 241 396 33 62 62 105 69 103 14 -5 486 -142 793 -230 193 -56 226
-63 257 -54 42 11 72 46 89 101 15 50 -4 112 -42 139 -14 11 -119 46 -235 80
-115 33 -331 96 -478 139 -147 43 -270 80 -273 83 -3 3 17 65 44 139 27 73 57
156 66 183 51 164 113 436 136 605 7 47 15 88 19 91 3 4 258 -11 566 -32 308
-21 593 -38 633 -39 68 0 74 2 109 33 31 29 37 41 40 88 5 63 -18 108 -66 133
-22 12 -171 25 -629 56 -330 22 -607 40 -616 40 -14 0 -16 22 -16 193 0 424
-63 804 -201 1225 -23 68 -38 126 -35 130 4 3 140 63 303 134 163 70 305 135
315 145 10 9 23 33 30 54 14 49 -9 117 -53 154 -58 48 -50 51 -632 -201 l-77
-33 -64 128 c-196 389 -449 747 -750 1058 -60 62 -106 118 -103 125 3 7 129
193 281 412 165 240 278 412 282 432 8 44 -20 100 -68 131 -31 21 -46 25 -83
20 -25 -2 -55 -13 -67 -23 -11 -11 -140 -193 -287 -405 l-267 -386 -85 69
c-192 159 -397 306 -609 438 -97 60 -344 198 -377 211 l-23 8 39 108 c22 59
109 301 195 538 86 236 158 443 161 460 13 69 -62 145 -142 145 -35 0 -50 -6
-78 -32 -31 -30 -54 -86 -225 -563 -105 -291 -193 -531 -195 -533 -2 -2 -34
10 -72 26 -227 100 -567 214 -868 291 -18 4 -29 13 -28 22 2 8 42 183 89 389
48 206 87 398 88 427 1 58 -24 95 -81 119 -67 29 -140 4 -168 -58 -11 -24
-195 -809 -195 -831 0 -2 -60 7 -132 19 -272 45 -653 83 -845 84 l-83 0 0 790
c0 666 -2 796 -14 825 -29 68 -126 96 -193 55z m502 -1825 c194 -8 715 -72
733 -90 2 -2 1 -8 -2 -13 -4 -6 -20 -7 -43 -1 -141 32 -504 74 -780 90 -112 7
-203 16 -203 21 0 5 34 7 78 4 42 -3 140 -8 217 -11z m-585 -4 c-14 -4 -86
-11 -160 -15 -250 -13 -558 -53 -819 -107 -79 -17 -146 -28 -149 -24 -3 3 -1
5 4 5 5 0 59 11 119 25 286 64 717 119 955 122 48 1 66 -1 50 -6z m1746 -182
c206 -56 403 -121 574 -189 207 -83 221 -90 215 -100 -4 -6 -21 -4 -43 6 -114
48 -254 102 -382 146 -162 55 -482 148 -511 148 -11 0 -19 7 -19 15 0 8 4 15
8 15 5 0 76 -18 158 -41z m-2889 25 c-3 -3 -12 -4 -19 -1 -8 3 -5 6 6 6 11 1
17 -2 13 -5z m-57 -14 c-34 -11 -60 -11 -35 0 11 5 29 8 40 8 16 0 15 -2 -5
-8z m-63 -16 c-3 -3 -12 -4 -19 -1 -8 3 -5 6 6 6 11 1 17 -2 13 -5z m4162
-451 c200 -106 444 -261 637 -404 110 -81 298 -237 303 -251 2 -6 -30 18 -70
52 -246 208 -572 425 -876 586 -98 51 -131 74 -107 74 4 0 55 -25 113 -57z"/>
</g>
</svg>
