<svg xmlns="http://www.w3.org/2000/svg" version="1.0" width="1280.000000" height="978.000000" preserveAspectRatio="xMidYMid meet"><rect id="backgroundrect" width="100%" height="100%" x="0" y="0" fill="none" stroke="none"/>
<metadata>
Created by potrace 1.15, written by Peter Selinger 2001-2017
</metadata>

<g class="currentLayer" style=""><title>Layer 1</title><g transform="translate(0,978) scale(0.10000000149011612,-0.10000000149011612) " fill="#20d34a" stroke="none" id="svg_1" class="selected" fill-opacity="1">
<path d="M1520 9766 c-97 -18 -184 -41 -270 -72 -93 -33 -183 -74 -178 -79 3 -3 56 8 119 25 212 56 323 73 474 73 116 1 154 -3 222 -22 248 -69 434 -311 564 -729 95 -307 125 -639 85 -935 l-19 -137 -101 97 c-123 120 -206 185 -491 384 -269 188 -393 286 -506 400 -207 209 -334 481 -355 765 -4 46 -11 87 -17 91 -6 4 -8 -52 -4 -158 6 -190 22 -260 92 -405 112 -232 282 -399 741 -729 230 -165 328 -242 449 -352 79 -71 181 -187 178 -201 0 -4 -9 -89 -19 -190 -16 -169 -19 -183 -38 -187 -63 -14 -488 -76 -586 -86 -155 -16 -475 -6 -655 21 -338 50 -698 149 -1064 291 -69 27 -127 46 -130 44 -6 -6 321 -164 424 -204 102 -39 370 -122 526 -161 401 -101 805 -112 1354 -34 61 8 117 17 125 20 13 3 15 -25 16 -224 1 -316 28 -475 111 -649 121 -256 430 -510 708 -583 233 -60 450 -46 857 56 191 48 184 49 180 -32 -14 -270 197 -559 523 -713 44 -21 118 -51 165 -66 435 -142 834 -337 1630 -797 600 -347 917 -520 1030 -563 214 -82 454 -97 627 -39 140 46 264 138 337 249 20 30 41 57 46 60 5 3 55 -6 112 -20 160 -41 267 -110 354 -227 84 -114 109 -221 124 -523 13 -257 28 -345 75 -441 85 -173 263 -269 570 -309 66 -8 121 -19 123 -23 1 -4 40 -83 85 -176 l83 -169 -28 -141 c-46 -235 -61 -367 -61 -561 -1 -485 111 -914 298 -1146 94 -116 202 -185 363 -232 116 -33 340 -31 512 6 124 26 251 65 218 66 -10 1 -68 -7 -130 -16 -79 -12 -174 -17 -313 -17 -222 0 -294 13 -412 72 -262 133 -424 499 -464 1051 -17 239 4 447 69 689 l28 103 68 -86 c89 -112 224 -249 411 -415 385 -343 536 -512 639 -717 81 -163 116 -309 124 -528 l6 -160 14 55 c8 33 14 113 15 200 1 123 -2 159 -22 235 -75 286 -213 473 -646 874 -319 295 -442 425 -538 569 l-47 70 42 189 42 190 195 6 c406 14 566 7 801 -34 375 -65 848 -239 1269 -467 73 -40 136 -71 138 -68 13 12 -345 232 -492 302 -291 138 -538 232 -748 283 -254 62 -600 95 -945 89 -165 -3 -192 -1 -192 12 0 8 9 76 20 150 77 520 2 820 -274 1108 -196 204 -396 307 -664 343 -114 15 -360 6 -576 -21 -92 -11 -173 -19 -179 -17 -7 2 -11 52 -12 138 -2 195 -44 326 -153 470 -113 148 -216 215 -523 338 -568 227 -933 414 -1949 996 -454 260 -521 295 -645 332 -84 25 -102 27 -280 27 -173 -1 -199 -3 -286 -26 -205 -55 -353 -138 -461 -258 -34 -38 -67 -71 -73 -74 -7 -2 -61 2 -121 10 -94 12 -122 20 -202 60 -67 32 -110 62 -151 103 -112 112 -153 218 -205 522 -55 318 -85 400 -185 499 -116 116 -315 175 -576 169 l-89 -2 -108 165 -108 165 11 124 c15 168 7 556 -15 674 -128 700 -362 1081 -721 1179 -82 23 -271 29 -365 12z m1144 -2222 c32 -52 55 -98 52 -101 -7 -7 -129 -23 -134 -18 -6 6 11 215 17 215 4 0 33 -43 65 -96z m520 -209 c92 -24 141 -49 197 -101 97 -92 125 -165 175 -454 37 -217 63 -327 95 -399 10 -24 18 -46 16 -48 -8 -7 -235 237 -313 338 -124 158 -440 622 -460 674 -7 17 -1 18 112 12 65 -3 146 -13 178 -22z m-289 -175 c283 -476 498 -748 732 -924 82 -62 371 -215 438 -232 44 -11 28 -22 -64 -43 -410 -97 -719 -55 -996 132 -129 87 -275 266 -345 421 -39 85 -76 225 -90 336 -11 96 -13 439 -2 456 11 18 204 44 218 30 6 -6 55 -85 109 -176z m6663 -3099 c194 -49 336 -127 473 -261 293 -287 375 -629 279 -1172 l-12 -68 -79 -2 c-43 -1 -93 -2 -110 -2 -31 -1 -33 2 -96 144 -158 358 -258 553 -369 727 -79 122 -135 194 -228 291 -94 98 -174 159 -350 268 l-128 79 78 12 c126 19 440 10 542 -16z m-144 -501 c55 -71 149 -211 216 -325 63 -106 340 -649 340 -666 0 -15 -108 -4 -210 22 -199 50 -312 159 -355 340 -8 35 -20 161 -25 279 -12 247 -20 304 -56 445 -6 23 15 0 90 -95z m856 -1117 c-1 -10 -11 -62 -24 -117 l-22 -99 -27 60 c-15 33 -38 85 -52 116 l-25 57 75 0 c65 0 75 -2 75 -17z" id="svg_2" fill="#20d34a"/>
</g></g></svg>