<svg xmlns="http://www.w3.org/2000/svg" version="1.0" width="1280.000000" height="1280.000000" preserveAspectRatio="xMidYMid meet"><rect id="backgroundrect" width="100%" height="100%" x="0" y="0" fill="none" stroke="none"/>
<metadata>
Created by potrace 1.15, written by Peter Selinger 2001-2017
</metadata>

<g class="currentLayer" style=""><title>Layer 1</title><g transform="translate(0,1280) scale(0.10000000149011612,-0.10000000149011612) " fill="#283290" stroke="none" id="svg_1" class="selected" fill-opacity="1">
<path d="M4307 12210 c-93 -48 -271 -162 -283 -181 -4 -7 8 -3 27 9 34 22 222 136 309 186 70 40 34 31 -53 -14z" id="svg_2" fill="#283290"/>
<path d="M4235 11946 c-27 -12 -70 -39 -93 -60 -42 -34 -132 -137 -132 -149 0 -3 37 32 83 77 62 62 101 92 157 119 41 20 66 37 55 37 -11 0 -42 -11 -70 -24z" id="svg_3" fill="#283290"/>
<path d="M4727 11938 c-132 -24 -344 -168 -503 -341 -133 -146 -204 -369 -204 -647 0 -195 32 -266 185 -417 l113 -112 -56 -6 c-87 -10 -208 -44 -303 -86 -188 -82 -417 -224 -533 -330 -82 -75 -216 -241 -271 -334 -21 -36 -42 -68 -47 -71 -7 -4 -13 43 -9 69 2 15 -38 175 -68 272 -32 99 -85 313 -137 542 -14 65 -57 204 -94 308 -37 105 -82 233 -100 285 -25 76 -45 113 -99 185 -124 165 -274 291 -450 378 l-84 42 -176 3 c-270 6 -344 -19 -556 -183 -131 -102 -151 -127 -221 -270 -60 -125 -83 -206 -118 -420 -65 -393 -75 -615 -43 -915 9 -91 22 -210 28 -265 17 -165 98 -686 139 -900 43 -224 51 -279 80 -550 53 -500 98 -807 159 -1100 56 -269 94 -598 121 -1045 6 -102 18 -250 26 -329 14 -137 96 -608 149 -861 13 -63 35 -182 50 -265 27 -159 86 -471 136 -720 16 -82 50 -251 74 -375 24 -124 65 -315 90 -425 65 -280 131 -604 145 -705 15 -109 44 -196 120 -356 34 -71 70 -150 81 -176 41 -105 171 -348 221 -414 29 -39 73 -99 97 -133 101 -141 393 -367 525 -406 114 -34 370 -10 514 48 238 96 471 336 537 552 41 134 46 212 35 515 -12 295 -35 497 -74 640 -8 30 -13 57 -11 59 2 2 25 -15 50 -36 53 -47 260 -156 465 -243 696 -298 1667 -579 2730 -790 867 -172 1716 -300 2240 -339 370 -28 724 -25 755 5 7 8 31 14 52 14 21 0 97 14 168 30 102 24 157 43 252 90 67 33 124 60 127 60 3 0 63 33 134 72 119 68 137 82 288 233 88 88 172 181 187 206 44 74 76 181 103 338 23 132 25 164 21 341 -9 321 -62 572 -166 778 -105 207 -243 380 -426 530 -44 36 -85 71 -91 78 -32 38 -134 66 -379 104 -342 53 -602 92 -650 97 -22 2 -123 13 -225 23 -431 46 -1051 96 -1970 160 -403 28 -1182 86 -1480 110 -417 33 -679 43 -984 37 l-289 -5 24 24 c13 13 330 268 704 568 l679 544 86 -73 c177 -150 551 -445 705 -556 548 -395 798 -516 1110 -534 93 -5 138 -3 200 10 238 48 385 132 489 278 127 177 206 429 206 652 0 154 -34 282 -72 272 -14 -4 -41 28 -120 141 -322 465 -604 795 -908 1064 -41 36 -73 68 -70 71 31 27 563 460 760 618 388 312 827 649 845 649 3 0 155 -56 338 -124 864 -322 1101 -390 1612 -461 358 -50 375 -51 375 -33 0 11 16 17 60 21 83 9 179 61 266 144 72 68 72 68 108 183 49 155 60 231 53 375 -18 361 -106 541 -357 728 -220 163 -400 237 -925 377 -126 34 -235 63 -241 65 -7 2 -13 49 -17 127 -8 185 -72 469 -134 592 -95 189 -301 385 -480 458 -56 22 -67 23 -318 22 -295 -1 -374 -11 -434 -54 -32 -24 -51 -29 -117 -33 -44 -3 -99 -9 -124 -15 -48 -10 -342 -141 -399 -177 l-35 -22 -20 23 c-17 18 -107 49 -416 139 -555 163 -800 241 -1270 403 -148 52 -1093 392 -1185 427 -38 14 -94 37 -123 51 -29 13 -69 28 -90 33 -20 5 -57 16 -82 25 -25 8 -119 38 -210 66 -91 29 -190 65 -220 80 -30 15 -75 34 -100 42 -25 8 -85 31 -135 51 -49 20 -99 39 -110 42 -15 5 -17 8 -6 15 11 6 7 13 -19 29 -59 35 -183 54 -263 39z m233 -58 c13 -8 13 -10 -2 -10 -9 0 -20 5 -23 10 -8 13 5 13 25 0z m-2328 -745 c9 -16 6 -15 -15 5 -15 14 -27 32 -27 40 1 16 21 -6 42 -45z m173 -450 c15 -42 25 -79 21 -82 -3 -3 -7 0 -9 8 -2 8 -12 37 -22 64 -24 69 -28 85 -23 85 3 0 18 -34 33 -75z m65 -205 c0 -13 -1 -13 -10 0 -5 8 -10 22 -10 30 0 13 1 13 10 0 5 -8 10 -22 10 -30z m3425 -850 c150 -45 459 -129 758 -205 l208 -53 -158 -125 c-87 -69 -210 -168 -273 -221 -63 -53 -118 -95 -122 -94 -8 3 -124 141 -235 278 -42 52 -153 172 -248 265 -94 94 -192 193 -218 221 l-48 52 103 -39 c57 -22 162 -57 233 -79z m55 -335 c13 -14 19 -25 13 -25 -5 0 -20 11 -33 25 -13 14 -19 25 -13 25 5 0 20 -11 33 -25z m-2937 -1577 c6 -22 5 -22 -8 -4 -17 22 -20 40 -6 32 5 -3 11 -16 14 -28z m90 -62 c23 -19 80 -58 127 -87 47 -28 119 -78 160 -109 213 -160 538 -353 683 -405 68 -25 137 -61 137 -72 0 -3 -150 -159 -332 -346 -183 -188 -374 -384 -424 -436 l-91 -94 -26 144 c-14 79 -28 171 -31 204 -3 33 -16 110 -30 170 -25 108 -69 341 -102 540 -9 55 -31 154 -49 220 -18 66 -40 154 -49 195 -9 41 -19 83 -22 93 -8 25 2 21 49 -17z m287 -46 c8 -5 12 -11 9 -14 -3 -3 -14 1 -25 9 -21 16 -8 20 16 5z m-67 -1520 c3 -11 1 -20 -4 -20 -5 0 -9 9 -9 20 0 11 2 20 4 20 2 0 6 -9 9 -20z m5507 -457 c0 -43 -16 -35 -22 11 -3 24 0 32 9 29 7 -3 13 -21 13 -40z m-3340 -297 c0 -2 -7 -7 -16 -10 -8 -3 -12 -2 -9 4 6 10 25 14 25 6z m3163 -361 c-3 -9 -8 -14 -10 -11 -3 3 -2 9 2 15 9 16 15 13 8 -4z m-728 -330 l30 -15 -35 6 c-19 4 -44 10 -55 15 -18 7 -18 8 5 8 14 0 39 -6 55 -14z m262 -21 c-3 -3 -12 -4 -19 -1 -8 3 -5 6 6 6 11 1 17 -2 13 -5z m-3692 -2144 c3 -5 2 -10 -4 -10 -5 0 -13 5 -16 10 -3 6 -2 10 4 10 5 0 13 -4 16 -10z m45 -20 c8 -5 11 -10 5 -10 -5 0 -17 5 -25 10 -8 5 -10 10 -5 10 6 0 17 -5 25 -10z m95 -36 c27 -19 7 -16 -40 6 -34 17 -36 18 -10 13 17 -3 39 -12 50 -19z m125 -42 c50 -21 72 -30 95 -36 11 -3 58 -19 105 -36 47 -17 99 -35 115 -39 17 -4 72 -22 124 -40 52 -17 102 -31 111 -31 8 0 25 -6 36 -14 11 -8 41 -17 67 -21 25 -4 52 -14 59 -23 11 -13 10 -14 -7 -9 -11 4 -65 20 -120 37 -258 78 -738 250 -655 234 19 -4 51 -13 70 -22z m840 -277 l25 -15 -30 6 c-16 4 -39 11 -50 15 -18 7 -18 8 5 8 14 0 36 -6 50 -14z m97 -31 c-3 -3 -12 -4 -19 -1 -8 3 -5 6 6 6 11 1 17 -2 13 -5z m118 -34 c3 -6 -1 -7 -9 -4 -18 7 -21 14 -7 14 6 0 13 -4 16 -10z" id="svg_4" fill="#283290"/>
<path d="M1101 11645 c-63 -72 -191 -275 -174 -275 9 0 20 16 105 150 30 47 69 102 87 123 18 20 29 37 23 37 -5 0 -24 -16 -41 -35z" id="svg_5" fill="#283290"/>
<path d="M1220 11560 c-82 -88 -271 -372 -257 -386 3 -4 44 51 90 122 46 71 112 164 146 207 63 80 77 117 21 57z" id="svg_6" fill="#283290"/>
<path d="M7233 11419 c76 -39 479 -211 483 -206 9 9 -508 238 -534 237 -4 -1 19 -14 51 -31z" id="svg_7" fill="#283290"/>
<path d="M7025 11301 c94 -37 242 -98 331 -134 171 -70 317 -117 366 -117 45 0 25 15 -39 30 -72 15 -250 78 -449 158 -165 66 -349 132 -367 132 -7 -1 65 -31 158 -69z" id="svg_8" fill="#283290"/>
<path d="M11091 10823 c128 -213 184 -334 226 -488 l24 -90 -5 60 c-10 122 -81 290 -193 458 -64 95 -97 133 -52 60z" id="svg_9" fill="#283290"/>
<path d="M11014 10650 c26 -28 63 -84 83 -126 32 -67 37 -87 41 -176 4 -74 7 -96 15 -83 5 10 7 56 5 107 -5 77 -11 100 -42 163 -35 71 -113 165 -137 165 -6 0 9 -23 35 -50z" id="svg_10" fill="#283290"/>
<path d="M3545 10443 c-68 -14 -154 -45 -165 -58 -11 -13 -9 -13 21 -1 19 8 75 24 124 36 50 12 92 24 94 26 5 5 -48 3 -74 -3z" id="svg_11" fill="#283290"/>
<path d="M3535 10342 c-27 -10 -66 -29 -86 -42 -43 -30 -132 -110 -127 -115 2 -2 33 19 68 47 61 48 171 108 197 108 6 0 15 5 18 10 9 14 -13 12 -70 -8z" id="svg_12" fill="#283290"/>
<path d="M10296 7869 c56 -34 143 -92 195 -130 51 -38 95 -66 98 -63 14 14 -163 139 -299 213 -112 61 -108 49 6 -20z" id="svg_13" fill="#283290"/>
<path d="M10319 7726 c32 -39 331 -222 331 -201 0 3 -209 137 -305 195 -30 18 -36 20 -26 6z" id="svg_14" fill="#283290"/>
<path d="M12469 7674 c-57 -58 -144 -101 -249 -121 -46 -9 -78 -19 -72 -21 21 -7 150 17 206 38 54 21 137 85 157 122 19 35 4 29 -42 -18z" id="svg_15" fill="#283290"/>
<path d="M12495 7499 c-44 -28 -159 -75 -256 -103 -59 -18 -75 -25 -53 -25 78 -2 341 100 352 137 5 17 -7 14 -43 -9z" id="svg_16" fill="#283290"/>
<path d="M8859 7349 c-67 -44 -339 -248 -339 -256 0 -12 99 55 315 215 117 86 111 82 98 82 -5 0 -39 -19 -74 -41z" id="svg_17" fill="#283290"/>
<path d="M8914 7219 c-52 -33 -214 -166 -214 -176 0 -3 6 -1 13 5 28 23 233 174 247 182 8 5 12 11 9 14 -3 3 -28 -8 -55 -25z" id="svg_18" fill="#283290"/>
<path d="M1037 6507 c-9 -69 8 -355 29 -492 17 -116 41 -236 49 -243 9 -10 5 36 -15 160 -26 163 -40 327 -41 473 -1 139 -12 191 -22 102z" id="svg_19" fill="#283290"/>
<path d="M9353 6158 c103 -104 164 -225 212 -423 l14 -60 -4 70 c-8 141 -78 287 -191 403 -45 45 -86 82 -92 82 -6 0 22 -33 61 -72z" id="svg_20" fill="#283290"/>
<path d="M930 6176 c0 -24 40 -337 45 -356 2 -8 2 23 -1 70 -8 128 -44 362 -44 286z" id="svg_21" fill="#283290"/>
<path d="M9270 6008 c0 -4 20 -35 44 -70 24 -35 53 -81 64 -104 23 -46 52 -149 52 -187 0 -14 5 -29 12 -33 17 -11 4 88 -22 165 -12 36 -37 88 -56 115 -39 59 -93 124 -94 114z" id="svg_22" fill="#283290"/>
<path d="M7100 5063 c1 -4 22 -18 49 -30 51 -25 103 -70 168 -148 23 -27 45 -46 49 -43 9 9 -57 97 -106 141 -53 48 -161 102 -160 80z" id="svg_23" fill="#283290"/>
<path d="M7080 4927 c0 -3 59 -51 131 -107 130 -102 177 -128 97 -54 -58 54 -228 173 -228 161z" id="svg_24" fill="#283290"/>
<path d="M9279 4731 c-45 -46 -100 -90 -138 -110 -75 -40 -74 -55 1 -18 83 41 218 164 218 198 0 12 5 16 -81 -70z" id="svg_25" fill="#283290"/>
<path d="M9458 4707 c-52 -60 -131 -123 -209 -168 -64 -36 -26 -28 46 10 57 30 171 134 198 180 10 17 16 31 14 31 -2 0 -24 -24 -49 -53z" id="svg_26" fill="#283290"/>
<path d="M11274 4358 c85 -56 151 -116 209 -188 80 -100 247 -360 306 -479 23 -45 45 -81 48 -78 9 10 -83 192 -162 317 -145 233 -261 364 -366 414 -29 14 -45 21 -35 14z" id="svg_27" fill="#283290"/>
<path d="M11045 4280 c-3 -6 0 -12 7 -14 72 -22 150 -56 200 -88 85 -55 264 -239 311 -318 54 -93 97 -212 104 -286 3 -35 10 -64 16 -64 15 0 -1 140 -23 206 -47 136 -147 276 -282 395 -96 85 -137 112 -213 142 -79 32 -112 39 -120 27z" id="svg_28" fill="#283290"/>
<path d="M11990 2402 c0 -121 -55 -309 -128 -442 -60 -108 -62 -116 -17 -55 54 73 101 172 130 272 30 102 43 231 27 259 -9 16 -11 10 -12 -34z" id="svg_29" fill="#283290"/>
<path d="M12147 2153 c-3 -5 -14 -44 -26 -88 -12 -44 -34 -101 -48 -127 -24 -44 -122 -146 -223 -231 -50 -42 -39 -40 30 7 61 40 177 152 206 198 22 34 54 136 68 216 5 30 2 41 -7 25z" id="svg_30" fill="#283290"/>
<path d="M5815 1820 c-3 -5 1 -10 10 -10 9 0 89 -23 178 -50 194 -60 295 -80 390 -79 l72 1 -120 18 c-130 20 -191 34 -360 84 -147 45 -163 48 -170 36z" id="svg_31" fill="#283290"/>
<path d="M6122 1629 c7 -5 87 -8 178 -8 91 0 161 2 155 4 -23 8 -346 12 -333 4z" id="svg_32" fill="#283290"/>
<path d="M4465 1498 c-32 -95 -66 -168 -102 -215 -18 -25 -20 -33 -9 -33 32 0 99 127 128 242 11 44 18 82 15 84 -3 3 -17 -32 -32 -78z" id="svg_33" fill="#283290"/>
<path d="M2270 1461 c0 -11 22 -52 49 -93 70 -104 362 -459 450 -546 116 -115 235 -193 293 -191 17 0 12 5 -21 20 -129 57 -263 185 -506 482 -169 208 -245 311 -245 335 0 6 -4 12 -10 12 -5 0 -10 -9 -10 -19z" id="svg_34" fill="#283290"/>
<path d="M4616 1383 c-8 -26 -25 -86 -36 -133 -12 -47 -23 -92 -26 -100 -4 -10 -2 -12 5 -5 12 12 85 275 78 281 -3 3 -12 -16 -21 -43z" id="svg_35" fill="#283290"/>
<path d="M2512 954 c125 -125 231 -224 235 -220 9 9 -404 419 -440 437 -12 6 80 -92 205 -217z" id="svg_36" fill="#283290"/>
<path d="M10110 1049 c-80 -21 -165 -39 -190 -39 -38 -1 -42 -3 -22 -11 15 -6 49 -5 95 2 76 12 270 64 296 79 32 19 -33 7 -179 -31z" id="svg_37" fill="#283290"/>
<path d="M2270 917 c0 -17 276 -231 363 -281 76 -45 55 -23 -48 49 -76 53 -201 147 -302 228 -7 5 -13 7 -13 4z" id="svg_38" fill="#283290"/>
<path d="M10250 859 c-64 -18 -241 -82 -236 -86 7 -7 249 67 286 88 13 7 13 8 0 8 -8 -1 -31 -5 -50 -10z" id="svg_39" fill="#283290"/>
</g></g></svg>